<svg xmlns="http://www.w3.org/2000/svg" xmlns:xlink="http://www.w3.org/1999/xlink" xmlns:inkscape="http://www.inkscape.org/namespaces/inkscape" version="1.1" width="30" height="30" viewBox="250.5 268.5 85 90">
<defs>
<clipPath id="clip_1">
<path transform="matrix(1,0,0,-1,0,841.89)" d="M0 841.89H595.276V0H0Z"/>
</clipPath>
<clipPath id="clip_2">
<path transform="matrix(1,0,0,-1,0,841.89)" d="M153.35 328.771H441.926V388.554H153.35Z"/>
</clipPath>
<clipPath id="clip_3">
<path transform="matrix(1,0,0,-1,0,841.89)" d="M153.35 251.701H441.926V311.483H153.35Z"/>
</clipPath>
<clipPath id="clip_4">
<path transform="matrix(1,0,0,-1,0,841.89)" d="M0 841.89H595.276V0H0Z"/>
</clipPath>
</defs>
<g inkscape:groupmode="layer" inkscape:label="Layer 1">
<g clip-path="url(#clip_1)"> 
<path transform="matrix(1,0,0,-1,297.6055,344.8218)" d="M0 0V17.83H-17.829V-.003H-35.99V18.086H-18.154V36H-36.009V54.177H-17.97V36.286H-.044V54.161H17.918V36.104H.296V18.183H17.942V0Z" fill="#d70fa4"/>
 
</g> 
</g>
</svg>
